HIERARCHY
ROOT Hips
{
	OFFSET -0.001795 -0.223333 0.028219
	CHANNELS 6 Xposition Yposition Zposition Zrotation Yrotation Xrotation 
	JOINT LeftUpLeg
	{
		OFFSET 0.069520 -0.091406 -0.006815
		CHANNELS 3 Zrotation Yrotation Xrotation
		JOINT LeftLeg
		{
			OFFSET 0.034277 -0.375199 -0.004496
			CHANNELS 3 Zrotation Yrotation Xrotation
			JOINT LeftFoot
			{
				OFFSET -0.013596 -0.397961 -0.043693
				CHANNELS 3 Zrotation Yrotation Xrotation
				JOINT LeftToe
				{
					OFFSET 0.026358 -0.055791 0.119288
					CHANNELS 3 Zrotation Yrotation Xrotation
					End Site
					{
						OFFSET 0.000000 0.000000 0.000000
					}
				}
			}
		}
	}
	JOINT RightUpLeg
	{
		OFFSET -0.067670 -0.090522 -0.004320
		CHANNELS 3 Zrotation Yrotation Xrotation
		JOINT RightLeg
		{
			OFFSET -0.038290 -0.382569 -0.008850
			CHANNELS 3 Zrotation Yrotation Xrotation
			JOINT RightFoot
			{
				OFFSET 0.015774 -0.398415 -0.042312
				CHANNELS 3 Zrotation Yrotation Xrotation
				JOINT RightToe
				{
					OFFSET -0.025372 -0.048144 0.123348
					CHANNELS 3 Zrotation Yrotation Xrotation
					End Site
					{
						OFFSET 0.000000 0.000000 0.000000
					}
				}
			}
		}
	}
	JOINT Spine
	{
		OFFSET -0.002533 0.108963 -0.026696
		CHANNELS 3 Zrotation Yrotation Xrotation
		JOINT Spine1
		{
			OFFSET 0.005487 0.135180 0.001092
			CHANNELS 3 Zrotation Yrotation Xrotation
			JOINT Spine2
			{
				OFFSET 0.001457 0.052922 0.025425
				CHANNELS 3 Zrotation Yrotation Xrotation
				JOINT Neck
				{
					OFFSET -0.002778 0.213870 -0.042857
					CHANNELS 3 Zrotation Yrotation Xrotation
					JOINT Head
					{
						OFFSET 0.005152 0.064970 0.051349
						CHANNELS 3 Zrotation Yrotation Xrotation
						End Site
						{
							OFFSET 0.000000 0.000000 0.000000
						}
					}
				}
				JOINT LeftShoulder
				{
					OFFSET 0.078845 0.121749 -0.034090
					CHANNELS 3 Zrotation Yrotation Xrotation
					JOINT LeftArm
					{
						OFFSET 0.090977 0.030469 -0.008868
						CHANNELS 3 Zrotation Yrotation Xrotation
						JOINT LeftForeArm
						{
							OFFSET 0.259612 -0.012772 -0.027456
							CHANNELS 3 Zrotation Yrotation Xrotation
							JOINT LeftHand
							{
								OFFSET 0.249234 0.008986 -0.001171
								CHANNELS 3 Zrotation Yrotation Xrotation
								End Site
								{
									OFFSET 0.000000 0.000000 0.000000
								}
							}
						}
					}
				}
				JOINT RightShoulder
				{
					OFFSET -0.081759 0.118833 -0.038615
					CHANNELS 3 Zrotation Yrotation Xrotation
					JOINT RightArm
					{
						OFFSET -0.096012 0.032551 -0.009143
						CHANNELS 3 Zrotation Yrotation Xrotation
						JOINT RightForeArm
						{
							OFFSET -0.253742 -0.013329 -0.021401
							CHANNELS 3 Zrotation Yrotation Xrotation
							JOINT RightHand
							{
								OFFSET -0.255298 0.007772 -0.005559
								CHANNELS 3 Zrotation Yrotation Xrotation
								End Site
								{
									OFFSET 0.000000 0.000000 0.000000
								}
							}
						}
					}
				}
			}
		}
	}
}
MOTION
Frames: 5
Frame Time: 0.050000
0.027665 0.947888 -0.031069 -1.329111 2.406343 9.705257 4.694175 -0.520632 -6.582772 -0.428095 0.153957 -3.696318 0.909345 6.030073 10.933702 0.000000 0.000000 0.000000 -1.148018 0.482935 -4.701821 -3.352238 -0.279200 -8.948269 -1.098695 -7.748545 16.192394 0.000000 0.000000 0.000000 5.352947 0.622310 -10.093505 -2.481703 1.151265 -0.195848 -9.298529 11.587835 -7.719855 13.119094 -9.066273 -3.770847 0.000000 0.000000 0.000000 -12.041896 -0.635285 -3.339311 -47.375381 -9.847142 -0.559197 -92.273101 -75.377517 73.567649 0.000000 0.000000 0.000000 11.453738 -4.749776 -1.495085 53.571289 32.207216 11.820733 -140.544810 58.855601 -98.955737 0.000000 0.000000 0.000000 
0.027319 0.947816 -0.031618 -1.382983 2.801550 9.515096 4.785071 -0.508782 -6.337002 -0.373805 0.157333 -3.951493 0.706020 5.727928 10.912094 0.000000 0.000000 0.000000 -0.938272 0.471793 -4.588131 -3.513684 -0.259262 -8.745717 -1.299008 -8.024076 16.138079 0.000000 0.000000 0.000000 5.318701 0.630396 -10.258194 -2.197507 1.008733 0.593397 -9.200496 10.228842 -7.424909 12.535274 -8.992065 -2.705125 0.000000 0.000000 0.000000 -13.072841 -0.905635 -3.357587 -47.931814 -12.822399 0.655927 -106.207787 -80.188349 93.111383 0.000000 0.000000 0.000000 12.894347 -5.859924 -2.192571 54.651032 25.893079 8.622721 -146.212410 61.771326 -110.852643 0.000000 0.000000 0.000000 
0.027042 0.947520 -0.031770 -1.127284 2.968816 9.673883 4.620155 -0.526263 -6.572363 -0.508312 0.164390 -3.898784 0.615781 5.595592 10.908480 0.000000 0.000000 0.000000 -1.199332 0.474398 -4.605659 -3.497072 -0.276560 -8.966982 -1.411019 -8.181332 16.098991 0.000000 0.000000 0.000000 5.228371 0.637784 -10.477582 -2.127945 0.966908 1.141449 -9.189138 9.019465 -7.250956 11.669926 -8.581964 -1.899886 0.000000 0.000000 0.000000 -14.391400 -0.767063 -3.605112 -48.022460 -15.834021 1.930963 -133.745341 -81.952209 124.791061 0.000000 0.000000 0.000000 14.008435 -7.402476 -3.156800 56.225770 17.979739 4.803136 -154.343021 65.608907 -126.887803 0.000000 0.000000 0.000000 
0.027076 0.947257 -0.031632 -1.060267 3.401696 9.597923 4.725592 -0.534686 -6.707017 -0.742921 0.171761 -3.624720 0.433488 5.283588 10.739792 0.000000 0.000000 0.000000 -1.204765 0.474300 -4.607668 -3.551429 -0.251885 -8.667627 -1.667617 -8.526808 15.939190 0.000000 0.000000 0.000000 5.433866 0.624995 -10.293685 -2.092076 0.944494 1.219319 -8.961965 7.916327 -7.087210 10.875813 -8.303934 -0.809147 0.000000 0.000000 0.000000 -15.081688 -0.770244 -3.619016 -48.314042 -18.319511 2.953948 -161.307655 -81.132561 155.932380 0.000000 0.000000 0.000000 15.073166 -9.662170 -4.532014 57.270358 10.753350 1.267613 -163.836152 69.826579 -144.248231 0.000000 0.000000 0.000000 
0.027331 0.946734 -0.031459 -0.917263 3.774495 9.431510 4.668432 -0.541989 -6.807518 -0.879662 0.169560 -3.198703 0.298857 5.001856 10.451538 0.000000 0.000000 0.000000 -1.261357 0.475426 -4.631617 -3.700683 -0.205970 -8.144950 -1.934020 -8.866811 15.595663 0.000000 0.000000 0.000000 5.429360 0.614438 -10.204486 -1.800024 0.802747 1.235053 -8.747562 6.928711 -6.437684 10.218431 -7.720451 -1.007710 0.000000 0.000000 0.000000 -15.859734 -0.659892 -3.699359 -48.843432 -20.453948 3.829219 -174.804950 -79.139364 171.977269 0.000000 0.000000 0.000000 15.464106 -11.684655 -5.749750 57.897958 3.710717 -2.193506 -176.019312 72.688368 -163.084863 0.000000 0.000000 0.000000 
